<svg version="1" xmlns="http://www.w3.org/2000/svg" width="1365.333" height="1365.333" viewBox="0 0 1024.000000 1024.000000"><path d="M519 8.2c-59.1 3.7-120 47.5-157.4 112.9-24.3 42.6-37.6 93.6-37.6 144.4 0 22.5 3.3 40.2 11.5 61 11.2 28.7 29.6 58.8 54.6 89 11.1 13.4 52.2 54.4 68.7 68.5l13.4 11.3-13.4 4.7c-83.1 29.2-157.5 90.4-203.3 167.4-41.4 69.5-56.7 140.1-45.9 212.1 7.6 51.3 31.4 94.3 64.4 116.4 31.8 21.2 68.6 25.8 113.3 14.1 60.5-15.8 125.8-70 177.4-147 42.1-63 79.5-151.3 99.9-236.3 1.5-6.4 3.3-11.7 3.9-11.7.5 0 6.6 2.3 13.5 5.1 42.6 17.3 86.7 26.9 103.7 22.6 10.6-2.8 26.3-12.6 30.3-19.2 3.1-5 2.6-7.9-2.2-13.1-7.6-8.2-10.3-9.9-70.8-44.6-16.8-9.6-36.9-21.4-44.8-26.2-13.4-8.3-14.3-9-13.8-11.5 1.8-8.7 5.9-39.7 8.5-64.6 5.2-48 7.2-87.8 7.2-142.3 0-69.8-3.9-108.4-15.8-154.7-17.4-68.3-49.2-118.1-89.9-141.3C570.5 11.7 547 6.4 519 8.2zM545.1 88c17.2 3.3 30.1 14.5 40.4 35 11.2 22.5 17.4 52.9 19.6 96.6 1.9 36.8-.8 121-5.6 178.9-2.4 27.9-6.5 67.8-7.3 69.8-.6 1.5-2.1.7-10.7-5.5-91.4-66.2-144.4-128.5-159.1-187.1-3.2-12.6-4.4-36.7-2.4-49.8 5.2-36.2 24.9-75.2 51.9-103.3 19-19.7 36.8-30.8 54.6-34.1 8.9-1.7 11.9-1.7 18.6-.5zm24.1 475.1c5.6 3.4 6.7 4.5 6.3 6.3-.3 1.1-2.1 9.3-4 18.1-13.5 61-29 110.3-49.7 158.4-36.5 84.5-78.8 142.8-123.2 169.6-19.6 11.7-36.2 16.3-52 14.4-40.7-5.1-56.8-60-37-125.8 16-53 52.6-111.6 97.8-156.6 36.1-35.9 77.1-62.9 118.6-78.2 7.2-2.6 33-10 35.9-10.3.3 0 3.5 1.8 7.3 4.1z"/></svg>